<?xml version="1.0" encoding="utf-8"?>
<!-- Uploaded to: SVG Repo, www.svgrepo.com, Generator: SVG Repo Mixer Tools -->
<svg fill="#000000" width="800px" height="800px" viewBox="-0.4 0 511.999 511.999" xmlns="http://www.w3.org/2000/svg">
  <g id="_30_Sound_off" data-name="30 Sound off" transform="translate(-0.398 -0.001)">
    <path id="Path_39" data-name="Path 39" d="M511.6,303.726l-47.694,47.726-47.726-47.726-47.725,47.726-47.694-47.726L368.458,256l-47.694-47.725,47.694-47.726,47.725,47.726,47.726-47.726L511.6,208.275,463.908,256ZM256.266,511.868,128.332,383.935H32.381A31.965,31.965,0,0,1,.4,351.952V160.05a31.965,31.965,0,0,1,31.983-31.983h95.951L256.266.133s31.983-4,31.983,31.983V479.885C288.249,515.866,256.266,511.868,256.266,511.868Zm-31.984-383.8-63.967,63.967H64.364V319.967h95.951l63.967,63.968Z" fill-rule="evenodd"/>
  </g>
</svg>